C:\Users\israe\Dropbox\PhDWork\ExperimentalData\subject1\055\P1S055W01_filtered35.mot
nRows=16
nColumns=28

name C:\Users\israe\Dropbox\PhDWork\ExperimentalData\subject1\055\P1S055W01_filtered35.mot
datacolumns 28
datarows 16
range 0.9500000000 0.9650000000
endheader
time	ground_force_1_vx	ground_force_1_vy	ground_force_1_vz	ground_force_1_px	ground_force_1_py	ground_force_1_pz	ground_moment_1_mx	ground_moment_1_my	ground_moment_1_mz	ground_force_2_vx	ground_force_2_vy	ground_force_2_vz	ground_force_2_px	ground_force_2_py	ground_force_2_pz	ground_moment_2_mx	ground_moment_2_my	ground_moment_2_mz	ground_force_3_vx	ground_force_3_vy	ground_force_3_vz	ground_force_3_px	ground_force_3_py	ground_force_3_pz	ground_moment_3_mx	ground_moment_3_my	ground_moment_3_mz
        0.9500000000	      -31.6022406500	      667.8166169191	       40.0367723692	        0.2000000000	        0.0000000000	       -0.9030000000	       -5.9474455232	       -4.5799737529	       16.4257186333	       -0.0000000471	        0.0000000000	       -0.0000005977	        0.2000000000	        0.0000000000	       -0.3000000000	       -0.0000006125	       -0.0000001086	        0.0000003845	       -0.0000000000	        0.0000000000	        0.0000000000	        0.2000000000	       -0.0000000000	        0.3030000000	        0.0000000000	        0.0000000000	       -0.0000000000	
        0.9510000000	      -31.7117259221	      668.2299237624	       40.3195733178	        0.2000000000	        0.0000000000	       -0.9030000000	       -6.1725146067	       -4.6000279065	       16.4421410697	       -0.0000000644	        0.0000000000	       -0.0000007409	        0.2000000000	        0.0000000000	       -0.3000000000	       -0.0000007680	       -0.0000001322	        0.0000004808	       -0.0000000000	        0.0000000000	        0.0000000000	        0.2000000000	       -0.0000000000	        0.3030000000	        0.0000000000	        0.0000000000	       -0.0000000000	
        0.9520000000	      -31.8218664916	      668.6423740204	       40.6034869999	        0.2000000000	        0.0000000000	       -0.9030000000	       -6.4003192508	       -4.6201600005	       16.4573978100	       -0.0000000838	        0.0000000000	       -0.0000008834	        0.2000000000	        0.0000000000	       -0.3000000000	       -0.0000009262	       -0.0000001547	        0.0000005782	       -0.0000000000	        0.0000000000	        0.0000000000	        0.2000000000	       -0.0000000000	        0.3030000000	        0.0000000000	        0.0000000000	       -0.0000000000	
        0.9530000000	      -31.9322859835	      669.0521447268	       40.8887621858	        0.2000000000	        0.0000000000	       -0.9030000000	       -6.6301346185	       -4.6401799246	       16.4718222361	       -0.0000001047	        0.0000000000	       -0.0000010118	        0.2000000000	        0.0000000000	       -0.3000000000	       -0.0000010737	       -0.0000001737	        0.0000006683	       -0.0000000000	        0.0000000000	        0.0000000000	        0.2000000000	       -0.0000000000	        0.3030000000	        0.0000000000	        0.0000000000	       -0.0000000000	
        0.9540000000	      -32.0426318921	      669.4555789345	       41.1752866881	        0.2000000000	        0.0000000000	       -0.9030000000	       -6.8613582215	       -4.6598657766	       16.4857956559	       -0.0000001259	        0.0000000000	       -0.0000011075	        0.2000000000	        0.0000000000	       -0.3000000000	       -0.0000011919	       -0.0000001856	        0.0000007393	       -0.0000000000	        0.0000000000	        0.0000000000	        0.2000000000	       -0.0000000000	        0.3030000000	        0.0000000000	       -0.0000000000	       -0.0000000000	
        0.9550000000	      -32.1519374811	      669.8503491047	       41.4623483413	        0.2000000000	        0.0000000000	       -0.9030000000	       -7.0934787066	       -4.6789733587	       16.4997999146	       -0.0000001454	        0.0000000000	       -0.0000011463	        0.2000000000	        0.0000000000	       -0.3000000000	       -0.0000012560	       -0.0000001861	        0.0000007758	       -0.0000000000	        0.0000000000	        0.0000000000	        0.2000000000	       -0.0000000000	        0.3030000000	        0.0000000000	       -0.0000000000	       -0.0000000000	
        0.9560000000	      -32.2581393504	      670.2377939326	       41.7492498794	        0.2000000000	        0.0000000000	       -0.9030000000	       -7.3259114936	       -4.6972913321	       16.5145970654	       -0.0000001608	        0.0000000000	       -0.0000010976	        0.2000000000	        0.0000000000	       -0.3000000000	       -0.0000012345	       -0.0000001695	        0.0000007578	       -0.0000000000	        0.0000000000	        0.0000000000	        0.2000000000	       -0.0000000000	        0.3030000000	        0.0000000000	       -0.0000000000	       -0.0000000000	
        0.9570000000	      -32.3588012077	      670.6225938599	       42.0360434312	        0.2000000000	        0.0000000000	       -0.9030000000	       -7.5582909506	       -4.7147931741	       16.5311835256	       -0.0000001686	        0.0000000000	       -0.0000009244	        0.2000000000	        0.0000000000	       -0.3000000000	       -0.0000010887	       -0.0000001295	        0.0000006614	       -0.0000000000	        0.0000000000	        0.0000000000	        0.2000000000	       -0.0000000000	        0.3030000000	        0.0000000000	       -0.0000000000	       -0.0000000000	
        0.9580000000	      -32.4525012274	      671.0100239483	       42.3234043797	        0.2000000000	        0.0000000000	       -0.9030000000	       -7.7908349690	       -4.7316996201	       16.5505393946	       -0.0000001645	        0.0000000000	       -0.0000005839	        0.2000000000	        0.0000000000	       -0.3000000000	       -0.0000007734	       -0.0000000585	        0.0000004582	       -0.0000000000	        0.0000000000	        0.0000000000	        0.2000000000	       -0.0000000000	        0.3030000000	        0.0000000000	       -0.0000000000	       -0.0000000000	
        0.9590000000	      -32.5394198391	      671.4039568798	       42.6117060379	        0.2000000000	        0.0000000000	       -0.9030000000	       -8.0241468542	       -4.7483081160	       16.5734173631	       -0.0000001433	        0.0000000000	       -0.0000000283	        0.2000000000	        0.0000000000	       -0.3000000000	       -0.0000002374	        0.0000000515	        0.0000001165	        0.0000000000	        0.0000000000	        0.0000000000	        0.2000000000	       -0.0000000000	        0.3030000000	        0.0000000000	       -0.0000000000	       -0.0000000000	
        0.9600000000	      -32.6210730907	      671.8068190607	       42.9003988398	        0.2000000000	        0.0000000000	       -0.9030000000	       -8.2586658917	       -4.7647506551	       16.6001661371	       -0.0000000988	        0.0000015425	        0.0000007930	        0.2000000000	        0.0000000000	       -0.3000000000	        0.0000005743	        0.0000002088	       -0.0000003978	        0.0000000000	        0.0000000000	        0.0000000000	        0.2000000000	       -0.0000000000	        0.3030000000	        0.0000000000	       -0.0000000000	       -0.0000000000	
        0.9610000000	      -32.6999279384	      672.2204954940	       43.1882461495	        0.2000000000	        0.0000000000	       -0.9030000000	       -8.4943259926	       -4.7809409221	       16.6305845289	       -0.0000000241	        0.0000062080	        0.0000019299	        0.2000000000	        0.0000000000	       -0.3000000000	        0.0000017173	        0.0000004212	       -0.0000011188	        0.0000000000	        0.0000000000	        0.0000000000	        0.2000000000	       -0.0000000000	        0.3030000000	        0.0000000000	       -0.0000000000	       -0.0000000000	
        0.9620000000	      -32.7786155646	      672.6466935012	       43.4739587955	        0.2000000000	        0.0000000000	       -0.9030000000	       -8.7306703304	       -4.7967226033	       16.6640166811	        0.0000000882	        0.0000125090	        0.0000034269	        0.2000000000	        0.0000000000	       -0.3000000000	        0.0000032428	        0.0000006954	       -0.0000020778	        0.0000000000	        0.0000000000	        0.0000000000	        0.2000000000	       -0.0000000000	        0.3030000000	        0.0000000000	       -0.0000000000	       -0.0000000000	
        0.9630000000	      -32.8589455673	      673.0854027502	       43.7566811888	        0.2000000000	        0.0000000000	       -0.9030000000	       -8.9672972823	       -4.8120193624	       16.6997142601	        0.0000002455	        0.0000206380	        0.0000053161	        0.2000000000	        0.0000000000	       -0.3000000000	        0.0000051912	        0.0000010352	       -0.0000032990	        0.0000000000	        0.0000000000	        0.0000000000	        0.2000000000	       -0.0000000000	        0.3030000000	        0.0000000000	       -0.0000000000	       -0.0000000000	
        0.9640000000	      -32.9418135801	      673.5324283423	       44.0360281523	        0.2000000000	        0.0000000000	       -0.9030000000	       -9.2041026779	       -4.8268746876	       16.7370068452	        0.0000004545	        0.0000307098	        0.0000076089	        0.2000000000	        0.0000000000	       -0.3000000000	        0.0000075826	        0.0000014402	       -0.0000047937	        0.0000000000	        0.0000000000	       -0.0000000000	        0.2000000000	       -0.0000000000	        0.3030000000	       -0.0000000000	       -0.0000000000	        0.0000000000	
        0.9650000000	      -33.0277772692	      673.9790735210	       44.3120149286	        0.2000000000	        0.0000000000	       -0.9030000000	       -9.4410206189	       -4.8414255954	       16.7750722984	        0.0000007206	        0.0000427141	        0.0000102845	        0.2000000000	        0.0000000000	       -0.3000000000	        0.0000104060	        0.0000019039	       -0.0000065534	        0.0000000000	        0.0000000000	       -0.0000000000	        0.2000000000	       -0.0000000000	        0.3030000000	       -0.0000000000	       -0.0000000000	        0.0000000000	
